<svg width="199" height="36" viewBox="0 0 199 36" fill="none" xmlns="http://www.w3.org/2000/svg">
<path d="M16 2C20.2409 2.00846 24.3056 3.69688 27.3044 6.69563C30.3031 9.69438 31.9915 13.7591 32 18V31.488C32 32.1542 31.7353 32.7932 31.2643 33.2643C30.7932 33.7353 30.1542 34 29.488 34H16C11.7565 34 7.68687 32.3143 4.68629 29.3137C1.68571 26.3131 0 22.2435 0 18C0 13.7565 1.68571 9.68687 4.68629 6.68629C7.68687 3.68571 11.7565 2 16 2ZM23.68 20.56C24.0597 20.56 24.431 20.4474 24.7467 20.2364C25.0624 20.0254 25.3085 19.7256 25.4538 19.3748C25.5992 19.0239 25.6372 18.6379 25.5631 18.2654C25.489 17.893 25.3062 17.5509 25.0376 17.2824C24.7691 17.0138 24.427 16.831 24.0546 16.7569C23.6821 16.6828 23.2961 16.7208 22.9452 16.8662C22.5944 17.0115 22.2945 17.2576 22.0836 17.5733C21.8726 17.889 21.76 18.2603 21.76 18.64C21.76 19.1492 21.9623 19.6376 22.3224 19.9976C22.6824 20.3577 23.1708 20.56 23.68 20.56ZM16 20.56C16.3797 20.56 16.751 20.4474 17.0667 20.2364C17.3824 20.0254 17.6285 19.7256 17.7738 19.3748C17.9192 19.0239 17.9572 18.6379 17.8831 18.2654C17.809 17.893 17.6262 17.5509 17.3576 17.2824C17.0891 17.0138 16.747 16.831 16.3746 16.7569C16.0021 16.6828 15.6161 16.7208 15.2652 16.8662C14.9144 17.0115 14.6146 17.2576 14.4036 17.5733C14.1926 17.889 14.08 18.2603 14.08 18.64C14.08 19.1492 14.2823 19.6376 14.6424 19.9976C15.0024 20.3577 15.4908 20.56 16 20.56ZM8.32 20.56C8.69974 20.56 9.07095 20.4474 9.38669 20.2364C9.70244 20.0254 9.94853 19.7256 10.0938 19.3748C10.2392 19.0239 10.2772 18.6379 10.2031 18.2654C10.129 17.893 9.94616 17.5509 9.67764 17.2824C9.40913 17.0138 9.06702 16.831 8.69457 16.7569C8.32213 16.6828 7.93608 16.7208 7.58525 16.8662C7.23442 17.0115 6.93455 17.2576 6.72358 17.5733C6.51261 17.889 6.4 18.2603 6.4 18.64C6.4 19.1492 6.60229 19.6376 6.96236 19.9976C7.32243 20.3577 7.81079 20.56 8.32 20.56Z" fill="#7248BD"/>
<path d="M44.888 17.624C44.888 15.992 45.264 14.528 46.016 13.232C46.784 11.936 47.816 10.928 49.112 10.208C50.424 9.472 51.856 9.104 53.408 9.104C55.184 9.104 56.76 9.544 58.136 10.424C59.528 11.288 60.536 12.52 61.16 14.12H57.872C57.44 13.24 56.84 12.584 56.072 12.152C55.304 11.72 54.416 11.504 53.408 11.504C52.304 11.504 51.32 11.752 50.456 12.248C49.592 12.744 48.912 13.456 48.416 14.384C47.936 15.312 47.696 16.392 47.696 17.624C47.696 18.856 47.936 19.936 48.416 20.864C48.912 21.792 49.592 22.512 50.456 23.024C51.32 23.52 52.304 23.768 53.408 23.768C54.416 23.768 55.304 23.552 56.072 23.12C56.84 22.688 57.44 22.032 57.872 21.152H61.16C60.536 22.752 59.528 23.984 58.136 24.848C56.76 25.712 55.184 26.144 53.408 26.144C51.84 26.144 50.408 25.784 49.112 25.064C47.816 24.328 46.784 23.312 46.016 22.016C45.264 20.72 44.888 19.256 44.888 17.624ZM72.8825 12.56C73.8905 12.56 74.7865 12.776 75.5705 13.208C76.3705 13.64 76.9945 14.28 77.4425 15.128C77.9065 15.976 78.1385 17 78.1385 18.2V26H75.4265V18.608C75.4265 17.424 75.1305 16.52 74.5385 15.896C73.9465 15.256 73.1385 14.936 72.1145 14.936C71.0905 14.936 70.2745 15.256 69.6665 15.896C69.0745 16.52 68.7785 17.424 68.7785 18.608V26H66.0425V8.24H68.7785V14.312C69.2425 13.752 69.8265 13.32 70.5305 13.016C71.2505 12.712 72.0345 12.56 72.8825 12.56ZM82.3964 19.328C82.3964 18 82.6684 16.824 83.2124 15.8C83.7724 14.776 84.5244 13.984 85.4684 13.424C86.4284 12.848 87.4844 12.56 88.6364 12.56C89.6764 12.56 90.5804 12.768 91.3484 13.184C92.1324 13.584 92.7564 14.088 93.2204 14.696V12.776H95.9804V26H93.2204V24.032C92.7564 24.656 92.1244 25.176 91.3244 25.592C90.5244 26.008 89.6124 26.216 88.5884 26.216C87.4524 26.216 86.4124 25.928 85.4684 25.352C84.5244 24.76 83.7724 23.944 83.2124 22.904C82.6684 21.848 82.3964 20.656 82.3964 19.328ZM93.2204 19.376C93.2204 18.464 93.0284 17.672 92.6444 17C92.2764 16.328 91.7884 15.816 91.1804 15.464C90.5724 15.112 89.9164 14.936 89.2124 14.936C88.5084 14.936 87.8524 15.112 87.2444 15.464C86.6364 15.8 86.1404 16.304 85.7564 16.976C85.3884 17.632 85.2044 18.416 85.2044 19.328C85.2044 20.24 85.3884 21.04 85.7564 21.728C86.1404 22.416 86.6364 22.944 87.2444 23.312C87.8684 23.664 88.5244 23.84 89.2124 23.84C89.9164 23.84 90.5724 23.664 91.1804 23.312C91.7884 22.96 92.2764 22.448 92.6444 21.776C93.0284 21.088 93.2204 20.288 93.2204 19.376ZM104.446 15.008V22.328C104.446 22.824 104.558 23.184 104.782 23.408C105.022 23.616 105.422 23.72 105.982 23.72H107.662V26H105.502C104.27 26 103.326 25.712 102.67 25.136C102.014 24.56 101.686 23.624 101.686 22.328V15.008H100.126V12.776H101.686V9.488H104.446V12.776H107.662V15.008H104.446Z" fill="#EDEDED"/>
<path d="M116.664 26.216C115.624 26.216 114.688 26.032 113.856 25.664C113.04 25.28 112.392 24.768 111.912 24.128C111.432 23.472 111.176 22.744 111.144 21.944H113.976C114.024 22.504 114.288 22.976 114.768 23.36C115.264 23.728 115.88 23.912 116.616 23.912C117.384 23.912 117.976 23.768 118.392 23.48C118.824 23.176 119.04 22.792 119.04 22.328C119.04 21.832 118.8 21.464 118.32 21.224C117.856 20.984 117.112 20.72 116.088 20.432C115.096 20.16 114.288 19.896 113.664 19.64C113.04 19.384 112.496 18.992 112.032 18.464C111.584 17.936 111.36 17.24 111.36 16.376C111.36 15.672 111.568 15.032 111.984 14.456C112.4 13.864 112.992 13.4 113.76 13.064C114.544 12.728 115.44 12.56 116.448 12.56C117.952 12.56 119.16 12.944 120.072 13.712C121 14.464 121.496 15.496 121.56 16.808H118.824C118.776 16.216 118.536 15.744 118.104 15.392C117.672 15.04 117.088 14.864 116.352 14.864C115.632 14.864 115.08 15 114.696 15.272C114.312 15.544 114.12 15.904 114.12 16.352C114.12 16.704 114.248 17 114.504 17.24C114.76 17.48 115.072 17.672 115.44 17.816C115.808 17.944 116.352 18.112 117.072 18.32C118.032 18.576 118.816 18.84 119.424 19.112C120.048 19.368 120.584 19.752 121.032 20.264C121.48 20.776 121.712 21.456 121.728 22.304C121.728 23.056 121.52 23.728 121.104 24.32C120.688 24.912 120.096 25.376 119.328 25.712C118.576 26.048 117.688 26.216 116.664 26.216ZM132.1 26.216C130.852 26.216 129.724 25.936 128.716 25.376C127.708 24.8 126.916 24 126.34 22.976C125.764 21.936 125.476 20.736 125.476 19.376C125.476 18.032 125.772 16.84 126.364 15.8C126.956 14.76 127.764 13.96 128.788 13.4C129.812 12.84 130.956 12.56 132.22 12.56C133.484 12.56 134.628 12.84 135.652 13.4C136.676 13.96 137.484 14.76 138.076 15.8C138.668 16.84 138.964 18.032 138.964 19.376C138.964 20.72 138.66 21.912 138.052 22.952C137.444 23.992 136.612 24.8 135.556 25.376C134.516 25.936 133.364 26.216 132.1 26.216ZM132.1 23.84C132.804 23.84 133.46 23.672 134.068 23.336C134.692 23 135.196 22.496 135.58 21.824C135.964 21.152 136.156 20.336 136.156 19.376C136.156 18.416 135.972 17.608 135.604 16.952C135.236 16.28 134.748 15.776 134.14 15.44C133.532 15.104 132.876 14.936 132.172 14.936C131.468 14.936 130.812 15.104 130.204 15.44C129.612 15.776 129.14 16.28 128.788 16.952C128.436 17.608 128.26 18.416 128.26 19.376C128.26 20.8 128.62 21.904 129.34 22.688C130.076 23.456 130.996 23.84 132.1 23.84ZM142.437 19.376C142.437 18.016 142.709 16.824 143.253 15.8C143.813 14.76 144.581 13.96 145.557 13.4C146.533 12.84 147.653 12.56 148.917 12.56C150.517 12.56 151.837 12.944 152.877 13.712C153.933 14.464 154.645 15.544 155.013 16.952H152.061C151.821 16.296 151.437 15.784 150.909 15.416C150.381 15.048 149.717 14.864 148.917 14.864C147.797 14.864 146.901 15.264 146.229 16.064C145.573 16.848 145.245 17.952 145.245 19.376C145.245 20.8 145.573 21.912 146.229 22.712C146.901 23.512 147.797 23.912 148.917 23.912C150.501 23.912 151.549 23.216 152.061 21.824H155.013C154.629 23.168 153.909 24.24 152.853 25.04C151.797 25.824 150.485 26.216 148.917 26.216C147.653 26.216 146.533 25.936 145.557 25.376C144.581 24.8 143.813 24 143.253 22.976C142.709 21.936 142.437 20.736 142.437 19.376ZM164.651 19.4L170.747 26H167.051L162.155 20.312V26H159.419V8.24H162.155V18.56L166.955 12.776H170.747L164.651 19.4ZM186.508 19.064C186.508 19.56 186.476 20.008 186.412 20.408H176.308C176.388 21.464 176.78 22.312 177.484 22.952C178.188 23.592 179.052 23.912 180.076 23.912C181.548 23.912 182.588 23.296 183.196 22.064H186.148C185.748 23.28 185.02 24.28 183.964 25.064C182.924 25.832 181.628 26.216 180.076 26.216C178.812 26.216 177.676 25.936 176.668 25.376C175.676 24.8 174.892 24 174.316 22.976C173.756 21.936 173.476 20.736 173.476 19.376C173.476 18.016 173.748 16.824 174.292 15.8C174.852 14.76 175.628 13.96 176.62 13.4C177.628 12.84 178.78 12.56 180.076 12.56C181.324 12.56 182.436 12.832 183.412 13.376C184.388 13.92 185.148 14.688 185.692 15.68C186.236 16.656 186.508 17.784 186.508 19.064ZM183.652 18.2C183.636 17.192 183.276 16.384 182.572 15.776C181.868 15.168 180.996 14.864 179.956 14.864C179.012 14.864 178.204 15.168 177.532 15.776C176.86 16.368 176.46 17.176 176.332 18.2H183.652ZM194.073 15.008V22.328C194.073 22.824 194.185 23.184 194.409 23.408C194.649 23.616 195.049 23.72 195.609 23.72H197.289V26H195.129C193.897 26 192.953 25.712 192.297 25.136C191.641 24.56 191.313 23.624 191.313 22.328V15.008H189.753V12.776H191.313V9.488H194.073V12.776H197.289V15.008H194.073Z" fill="#7248BD"/>
</svg>
