<svg width="19" height="21" viewBox="0 0 19 21" fill="none" xmlns="http://www.w3.org/2000/svg">
<path d="M18.0704 9.04868L2.27357 0.208058C2.01036 0.0545666 1.70727 -0.0167347 1.40323 0.00331158C1.0992 0.0233579 0.808096 0.133836 0.567316 0.320558C0.321415 0.514571 0.142878 0.781116 0.0570517 1.08235C-0.028775 1.38359 -0.0175296 1.7042 0.0891913 1.99868L2.72357 9.35806C2.75022 9.43144 2.79858 9.49496 2.86222 9.54018C2.92586 9.58539 3.00176 9.61016 3.07982 9.61118H9.84857C10.0432 9.6081 10.2317 9.67896 10.3761 9.80946C10.5206 9.93995 10.6101 10.1204 10.6267 10.3143C10.6331 10.4167 10.6184 10.5193 10.5836 10.6157C10.5488 10.7122 10.4946 10.8005 10.4243 10.8752C10.354 10.9499 10.2691 11.0094 10.175 11.05C10.0808 11.0905 9.97925 11.1114 9.87669 11.1112H3.07982C3.00176 11.1122 2.92586 11.137 2.86222 11.1822C2.79858 11.2274 2.75022 11.2909 2.72357 11.3643L0.0891913 18.7237C0.010147 18.9504 -0.0136709 19.1927 0.0197159 19.4305C0.0531026 19.6682 0.142731 19.8946 0.281157 20.0908C0.419583 20.287 0.602814 20.4473 0.815633 20.5585C1.02845 20.6696 1.26472 20.7284 1.50482 20.7299C1.76031 20.7288 2.01154 20.6644 2.23607 20.5424L18.0704 11.6737C18.3024 11.5419 18.4953 11.3511 18.6295 11.1205C18.7638 10.89 18.8345 10.628 18.8345 10.3612C18.8345 10.0944 18.7638 9.8324 18.6295 9.60184C18.4953 9.37129 18.3024 9.18042 18.0704 9.04868V9.04868Z" fill="#EDEDED"/>
</svg>
