<svg width="64" height="64" viewBox="0 0 64 64" fill="none" xmlns="http://www.w3.org/2000/svg">
<path d="M32 0C40.4817 0.0169128 48.6112 3.39376 54.6087 9.39126C60.6062 15.3888 63.9831 23.5183 64 32V58.976C64 60.3084 63.4707 61.5863 62.5285 62.5285C61.5863 63.4707 60.3084 64 58.976 64H32C23.5131 64 15.3737 60.6286 9.37258 54.6274C3.37142 48.6263 1.43051e-06 40.4869 1.43051e-06 32C1.43051e-06 23.5131 3.37142 15.3737 9.37258 9.37258C15.3737 3.37142 23.5131 0 32 0V0ZM47.36 37.12C48.1195 37.12 48.8619 36.8948 49.4934 36.4728C50.1249 36.0509 50.6171 35.4512 50.9077 34.7495C51.1983 34.0478 51.2744 33.2757 51.1262 32.5309C50.978 31.786 50.6123 31.1017 50.0753 30.5647C49.5383 30.0277 48.854 29.662 48.1091 29.5138C47.3643 29.3656 46.5922 29.4417 45.8905 29.7323C45.1888 30.0229 44.5891 30.5151 44.1672 31.1466C43.7452 31.7781 43.52 32.5205 43.52 33.28C43.52 34.2984 43.9246 35.2751 44.6447 35.9953C45.3648 36.7154 46.3416 37.12 47.36 37.12ZM32 37.12C32.7595 37.12 33.5019 36.8948 34.1334 36.4728C34.7649 36.0509 35.2571 35.4512 35.5477 34.7495C35.8383 34.0478 35.9144 33.2757 35.7662 32.5309C35.618 31.786 35.2523 31.1017 34.7153 30.5647C34.1783 30.0277 33.494 29.662 32.7491 29.5138C32.0043 29.3656 31.2322 29.4417 30.5305 29.7323C29.8288 30.0229 29.2291 30.5151 28.8072 31.1466C28.3852 31.7781 28.16 32.5205 28.16 33.28C28.16 34.2984 28.5646 35.2751 29.2847 35.9953C30.0049 36.7154 30.9816 37.12 32 37.12ZM16.64 37.12C17.3995 37.12 18.1419 36.8948 18.7734 36.4728C19.4049 36.0509 19.8971 35.4512 20.1877 34.7495C20.4783 34.0478 20.5544 33.2757 20.4062 32.5309C20.258 31.786 19.8923 31.1017 19.3553 30.5647C18.8183 30.0277 18.134 29.662 17.3891 29.5138C16.6443 29.3656 15.8722 29.4417 15.1705 29.7323C14.4688 30.0229 13.8691 30.5151 13.4472 31.1466C13.0252 31.7781 12.8 32.5205 12.8 33.28C12.8 34.2984 13.2046 35.2751 13.9247 35.9953C14.6449 36.7154 15.6216 37.12 16.64 37.12Z" fill="#7248BD"/>
</svg>
